<svg width="17" height="28" viewBox="0 0 17 28" fill="none" xmlns="http://www.w3.org/2000/svg">
<path id="Vector" d="M10 10.7312H16.9375L16.1667 13.7972H10V27.5945H6.91667V13.7972H0.75V10.7312H6.91667V7.86136C6.91667 5.12797 7.20342 4.1361 7.73992 3.13657C8.26564 2.14901 9.07778 1.34141 10.0709 0.818636C11.0761 0.285143 12.0735 0 14.8223 0C15.6271 0 16.3332 0.0766514 16.9375 0.229954V3.06605H14.8223C12.7812 3.06605 12.1599 3.18563 11.5247 3.52289C11.0688 3.75976 10.697 4.13004 10.4594 4.58375C10.1203 5.21382 10 5.83163 10 7.86136V10.7312Z" fill="#F8F8F8"/>
</svg>
